<svg aria-roledescription="mindmap" role="graphics-document document" viewBox="5 5 793.8341064453125 563.6914672851562" style="max-width: 793.834px; background-color: white;" xmlns:xlink="http://www.w3.org/1999/xlink" xmlns="http://www.w3.org/2000/svg" width="100%" id="my-svg"><style>#my-svg{font-family:"trebuchet ms",verdana,arial,sans-serif;font-size:16px;fill:#333;}@keyframes edge-animation-frame{from{stroke-dashoffset:0;}}@keyframes dash{to{stroke-dashoffset:0;}}#my-svg .edge-animation-slow{stroke-dasharray:9,5!important;stroke-dashoffset:900;animation:dash 50s linear infinite;stroke-linecap:round;}#my-svg .edge-animation-fast{stroke-dasharray:9,5!important;stroke-dashoffset:900;animation:dash 20s linear infinite;stroke-linecap:round;}#my-svg .error-icon{fill:#552222;}#my-svg .error-text{fill:#552222;stroke:#552222;}#my-svg .edge-thickness-normal{stroke-width:1px;}#my-svg .edge-thickness-thick{stroke-width:3.5px;}#my-svg .edge-pattern-solid{stroke-dasharray:0;}#my-svg .edge-thickness-invisible{stroke-width:0;fill:none;}#my-svg .edge-pattern-dashed{stroke-dasharray:3;}#my-svg .edge-pattern-dotted{stroke-dasharray:2;}#my-svg .marker{fill:#333333;stroke:#333333;}#my-svg .marker.cross{stroke:#333333;}#my-svg svg{font-family:"trebuchet ms",verdana,arial,sans-serif;font-size:16px;}#my-svg p{margin:0;}#my-svg .edge{stroke-width:3;}#my-svg .section--1 rect,#my-svg .section--1 path,#my-svg .section--1 circle,#my-svg .section--1 polygon,#my-svg .section--1 path{fill:hsl(240, 100%, 76.2745098039%);}#my-svg .section--1 text{fill:#ffffff;}#my-svg .node-icon--1{font-size:40px;color:#ffffff;}#my-svg .section-edge--1{stroke:hsl(240, 100%, 76.2745098039%);}#my-svg .edge-depth--1{stroke-width:17;}#my-svg .section--1 line{stroke:hsl(60, 100%, 86.2745098039%);stroke-width:3;}#my-svg .disabled,#my-svg .disabled circle,#my-svg .disabled text{fill:lightgray;}#my-svg .disabled text{fill:#efefef;}#my-svg .section-0 rect,#my-svg .section-0 path,#my-svg .section-0 circle,#my-svg .section-0 polygon,#my-svg .section-0 path{fill:hsl(60, 100%, 73.5294117647%);}#my-svg .section-0 text{fill:black;}#my-svg .node-icon-0{font-size:40px;color:black;}#my-svg .section-edge-0{stroke:hsl(60, 100%, 73.5294117647%);}#my-svg .edge-depth-0{stroke-width:14;}#my-svg .section-0 line{stroke:hsl(240, 100%, 83.5294117647%);stroke-width:3;}#my-svg .disabled,#my-svg .disabled circle,#my-svg .disabled text{fill:lightgray;}#my-svg .disabled text{fill:#efefef;}#my-svg .section-1 rect,#my-svg .section-1 path,#my-svg .section-1 circle,#my-svg .section-1 polygon,#my-svg .section-1 path{fill:hsl(80, 100%, 76.2745098039%);}#my-svg .section-1 text{fill:black;}#my-svg .node-icon-1{font-size:40px;color:black;}#my-svg .section-edge-1{stroke:hsl(80, 100%, 76.2745098039%);}#my-svg .edge-depth-1{stroke-width:11;}#my-svg .section-1 line{stroke:hsl(260, 100%, 86.2745098039%);stroke-width:3;}#my-svg .disabled,#my-svg .disabled circle,#my-svg .disabled text{fill:lightgray;}#my-svg .disabled text{fill:#efefef;}#my-svg .section-2 rect,#my-svg .section-2 path,#my-svg .section-2 circle,#my-svg .section-2 polygon,#my-svg .section-2 path{fill:hsl(270, 100%, 76.2745098039%);}#my-svg .section-2 text{fill:#ffffff;}#my-svg .node-icon-2{font-size:40px;color:#ffffff;}#my-svg .section-edge-2{stroke:hsl(270, 100%, 76.2745098039%);}#my-svg .edge-depth-2{stroke-width:8;}#my-svg .section-2 line{stroke:hsl(90, 100%, 86.2745098039%);stroke-width:3;}#my-svg .disabled,#my-svg .disabled circle,#my-svg .disabled text{fill:lightgray;}#my-svg .disabled text{fill:#efefef;}#my-svg .section-3 rect,#my-svg .section-3 path,#my-svg .section-3 circle,#my-svg .section-3 polygon,#my-svg .section-3 path{fill:hsl(300, 100%, 76.2745098039%);}#my-svg .section-3 text{fill:black;}#my-svg .node-icon-3{font-size:40px;color:black;}#my-svg .section-edge-3{stroke:hsl(300, 100%, 76.2745098039%);}#my-svg .edge-depth-3{stroke-width:5;}#my-svg .section-3 line{stroke:hsl(120, 100%, 86.2745098039%);stroke-width:3;}#my-svg .disabled,#my-svg .disabled circle,#my-svg .disabled text{fill:lightgray;}#my-svg .disabled text{fill:#efefef;}#my-svg .section-4 rect,#my-svg .section-4 path,#my-svg .section-4 circle,#my-svg .section-4 polygon,#my-svg .section-4 path{fill:hsl(330, 100%, 76.2745098039%);}#my-svg .section-4 text{fill:black;}#my-svg .node-icon-4{font-size:40px;color:black;}#my-svg .section-edge-4{stroke:hsl(330, 100%, 76.2745098039%);}#my-svg .edge-depth-4{stroke-width:2;}#my-svg .section-4 line{stroke:hsl(150, 100%, 86.2745098039%);stroke-width:3;}#my-svg .disabled,#my-svg .disabled circle,#my-svg .disabled text{fill:lightgray;}#my-svg .disabled text{fill:#efefef;}#my-svg .section-5 rect,#my-svg .section-5 path,#my-svg .section-5 circle,#my-svg .section-5 polygon,#my-svg .section-5 path{fill:hsl(0, 100%, 76.2745098039%);}#my-svg .section-5 text{fill:black;}#my-svg .node-icon-5{font-size:40px;color:black;}#my-svg .section-edge-5{stroke:hsl(0, 100%, 76.2745098039%);}#my-svg .edge-depth-5{stroke-width:-1;}#my-svg .section-5 line{stroke:hsl(180, 100%, 86.2745098039%);stroke-width:3;}#my-svg .disabled,#my-svg .disabled circle,#my-svg .disabled text{fill:lightgray;}#my-svg .disabled text{fill:#efefef;}#my-svg .section-6 rect,#my-svg .section-6 path,#my-svg .section-6 circle,#my-svg .section-6 polygon,#my-svg .section-6 path{fill:hsl(30, 100%, 76.2745098039%);}#my-svg .section-6 text{fill:black;}#my-svg .node-icon-6{font-size:40px;color:black;}#my-svg .section-edge-6{stroke:hsl(30, 100%, 76.2745098039%);}#my-svg .edge-depth-6{stroke-width:-4;}#my-svg .section-6 line{stroke:hsl(210, 100%, 86.2745098039%);stroke-width:3;}#my-svg .disabled,#my-svg .disabled circle,#my-svg .disabled text{fill:lightgray;}#my-svg .disabled text{fill:#efefef;}#my-svg .section-7 rect,#my-svg .section-7 path,#my-svg .section-7 circle,#my-svg .section-7 polygon,#my-svg .section-7 path{fill:hsl(90, 100%, 76.2745098039%);}#my-svg .section-7 text{fill:black;}#my-svg .node-icon-7{font-size:40px;color:black;}#my-svg .section-edge-7{stroke:hsl(90, 100%, 76.2745098039%);}#my-svg .edge-depth-7{stroke-width:-7;}#my-svg .section-7 line{stroke:hsl(270, 100%, 86.2745098039%);stroke-width:3;}#my-svg .disabled,#my-svg .disabled circle,#my-svg .disabled text{fill:lightgray;}#my-svg .disabled text{fill:#efefef;}#my-svg .section-8 rect,#my-svg .section-8 path,#my-svg .section-8 circle,#my-svg .section-8 polygon,#my-svg .section-8 path{fill:hsl(150, 100%, 76.2745098039%);}#my-svg .section-8 text{fill:black;}#my-svg .node-icon-8{font-size:40px;color:black;}#my-svg .section-edge-8{stroke:hsl(150, 100%, 76.2745098039%);}#my-svg .edge-depth-8{stroke-width:-10;}#my-svg .section-8 line{stroke:hsl(330, 100%, 86.2745098039%);stroke-width:3;}#my-svg .disabled,#my-svg .disabled circle,#my-svg .disabled text{fill:lightgray;}#my-svg .disabled text{fill:#efefef;}#my-svg .section-9 rect,#my-svg .section-9 path,#my-svg .section-9 circle,#my-svg .section-9 polygon,#my-svg .section-9 path{fill:hsl(180, 100%, 76.2745098039%);}#my-svg .section-9 text{fill:black;}#my-svg .node-icon-9{font-size:40px;color:black;}#my-svg .section-edge-9{stroke:hsl(180, 100%, 76.2745098039%);}#my-svg .edge-depth-9{stroke-width:-13;}#my-svg .section-9 line{stroke:hsl(0, 100%, 86.2745098039%);stroke-width:3;}#my-svg .disabled,#my-svg .disabled circle,#my-svg .disabled text{fill:lightgray;}#my-svg .disabled text{fill:#efefef;}#my-svg .section-10 rect,#my-svg .section-10 path,#my-svg .section-10 circle,#my-svg .section-10 polygon,#my-svg .section-10 path{fill:hsl(210, 100%, 76.2745098039%);}#my-svg .section-10 text{fill:black;}#my-svg .node-icon-10{font-size:40px;color:black;}#my-svg .section-edge-10{stroke:hsl(210, 100%, 76.2745098039%);}#my-svg .edge-depth-10{stroke-width:-16;}#my-svg .section-10 line{stroke:hsl(30, 100%, 86.2745098039%);stroke-width:3;}#my-svg .disabled,#my-svg .disabled circle,#my-svg .disabled text{fill:lightgray;}#my-svg .disabled text{fill:#efefef;}#my-svg .section-root rect,#my-svg .section-root path,#my-svg .section-root circle,#my-svg .section-root polygon{fill:hsl(240, 100%, 46.2745098039%);}#my-svg .section-root text{fill:#ffffff;}#my-svg .icon-container{height:100%;display:flex;justify-content:center;align-items:center;}#my-svg .edge{fill:none;}#my-svg .mindmap-node-label{dy:1em;alignment-baseline:middle;text-anchor:middle;dominant-baseline:middle;text-align:center;}#my-svg :root{--mermaid-font-family:"trebuchet ms",verdana,arial,sans-serif;}</style><g/><g class="mindmap-edges"><path class="edge section-edge-0 edge-depth-2" d="M 576.9768889221072,303.86074287777524 L 559.1018211240967,276.01089856346874 L541.2267533260862,248.16105424916225"/><path class="edge section-edge-0 edge-depth-2" d="M 599.3954160826695,312.00719075143815 L 659.6831967567815,293.15358887552185 L719.9709774308935,274.29998699960555"/><path class="edge section-edge-0 edge-depth-1" d="M 463.30121276997056,371.74310397742994 L 517.3604273829491,347.21280485981083 L571.4196419959276,322.6825057421917"/><path class="edge section-edge-0 edge-depth-2" d="M 567.1128802475741,443.6698019751906 L 620.9823333466369,420.2289649812983 L674.8517864456996,396.788127987406"/><path class="edge section-edge-0 edge-depth-2" d="M 558.9781778669583,463.5624239169373 L 571.5690922983096,494.72316834995155 L584.1600067296608,525.8839127829658"/><path class="edge section-edge-0 edge-depth-2" d="M 568.058823979721,452.63887810617547 L 635.1057138491813,466.24891517978205 L702.1526037186416,479.8589522533886"/><path class="edge section-edge-0 edge-depth-2" d="M 540.3849461194783,457.18368262968204 L 497.40868335130074,482.1234884742915 L454.4324205831232,507.063294318901"/><path class="edge section-edge-0 edge-depth-1" d="M 461.9796336778322,386.47220621655794 L 501.5001745490564,413.79809105248955 L541.0207154202806,441.12397588842117"/><path class="edge section-edge-0 edge-depth-2" d="M 309.66424002837095,452.1835270501705 L 291.16648895542147,482.0688249845463 L272.668737882472,511.95412291892217"/><path class="edge section-edge-0 edge-depth-2" d="M 307.4459145600497,428.35064338156707 L 282.94794560732055,401.5135993095709 L258.4499766545914,374.67655523757475"/><path class="edge section-edge-0 edge-depth-2" d="M 302.59035538715636,440.4024935412464 L 233.87559679480097,444.8712906244484 L165.16083820244558,449.34008770765047"/><path class="edge section-edge-0 edge-depth-1" d="M 436.0430144031882,384.2718480327429 L 383.6002244111894,408.6851881739483 L331.1574344191906,433.09852831515366"/><path class="edge section-edge-0 edge-depth-0" d="M 390.4975817559121,304.4309250355921 L 415.3681764838374,335.34265867264145 L440.23877121176264,366.2543923096908"/><path class="edge section-edge-1 edge-depth-2" d="M 171.70512193157157,242.41306183177417 L 136.30254401573922,268.93013735320164 L100.89996609990688,295.44721287462914"/><path class="edge section-edge-1 edge-depth-2" d="M 169.1501067878757,229.81696434200958 L 117.60539680534305,217.06002135306127 L66.06068682281038,204.30307836411296"/><path class="edge section-edge-1 edge-depth-1" d="M 313.90088623989743,206.80190699222152 L 256.15382455566095,218.6088959338944 L198.40676287142443,230.41588487556726"/><path class="edge section-edge-1 edge-depth-2" d="M 231.02636027074684,122.89461003598805 L 164.69707541929995,108.11729399425744 L98.36779056785306,93.33997795252682"/><path class="edge section-edge-1 edge-depth-2" d="M 243.33881885297876,111.33829632042486 L 238.41860846755264,80.02822455939628 L233.49839808212653,48.71815279836768"/><path class="edge section-edge-1 edge-depth-1" d="M 317.64684014559504,193.54547205489592 L 287.1321339220819,164.97680597381142 L256.61742769856875,136.40813989272692"/><path class="edge section-edge-1 edge-depth-2" d="M 448.1471907056599,124.30980665280292 L 485.5871557771454,97.61007510229129 L523.027120848631,70.91034355177965"/><path class="edge section-edge-1 edge-depth-2" d="M 429.8055514265957,119.32836027653548 L 416.34408207499723,89.25864214777854 L402.8826127233988,59.1889240190216"/><path class="edge section-edge-1 edge-depth-2" d="M 450.864462638139,134.46733821496952 L 509.78228742677413,140.18263701414335 L568.7001122154093,145.8979358133172"/><path class="edge section-edge-1 edge-depth-1" d="M 341.1194699142562,195.53979471012642 L 382.26569905207566,168.40811521690725 L423.41192818989515,141.27643572368808"/><path class="edge section-edge-1 edge-depth-0" d="M 373.47034205925473,279.826159815323 L 354.8457473101645,248.27057172426893 L336.22115256107423,216.71498363321484"/></g><g class="mindmap-nodes"><g transform="translate(322.59463911969317, 273.84398061970757)" class="mindmap-node section--1 section-root"><g transform="translate(58.5, 18.9)"><circle r="58.5" class="node-bkg node-circle" id="node-0"/></g><g transform="translate(58.5, 5)" text-anchor="middle" dominant-baseline="middle" alignment-baseline="middle" dy="1em"><g><rect style="stroke: none" class="background"/><text style="" y="-10.1"><tspan dy="1.1em" y="-0.1em" x="0" class="text-outer-tspan"><tspan font-weight="normal" class="text-inner-tspan" font-style="normal">邮件协议安全</tspan></tspan></text></g></g></g><g transform="translate(404.5128075979816, 359.0413367255754)" class="mindmap-node section-0"><g><path d="M0 32.8 v-27.799999999999997 q0,-5 5,-5 h80.2578125 q5,0 5,5 v32.8 H0 Z" class="node-bkg node-no-border" id="node-1"/><line y2="37.8" x2="90.2578125" y1="37.8" x1="0" class="node-line-0"/></g><g transform="translate(45.12890625, 5)" text-anchor="middle" dominant-baseline="middle" alignment-baseline="middle" dy="1em"><g><rect style="stroke: none" class="background"/><text style="" y="-10.1"><tspan dy="1.1em" y="-0.1em" x="0" class="text-outer-tspan"><tspan font-weight="normal" class="text-inner-tspan" font-style="normal">SMTP安全</tspan></tspan></text></g></g></g><g transform="translate(283.5890430006358, 184.8971628288303)" class="mindmap-node section-1"><g><path d="M0 32.8 v-27.799999999999997 q0,-5 5,-5 h80.015625 q5,0 5,5 v32.8 H0 Z" class="node-bkg node-no-border" id="node-14"/><line y2="37.8" x2="90.015625" y1="37.8" x1="0" class="node-line-1"/></g><g transform="translate(45.0078125, 5)" text-anchor="middle" dominant-baseline="middle" alignment-baseline="middle" dy="1em"><g><rect style="stroke: none" class="background"/><text style="" y="-10.1"><tspan dy="1.1em" y="-0.1em" x="0" class="text-outer-tspan"><tspan font-weight="normal" class="text-inner-tspan" font-style="normal">POP3安全</tspan></tspan></text></g></g></g><g transform="translate(542.5791409179166, 297.58427299404633)" class="mindmap-node section-0"><g><path d="M0 32.8 v-27.799999999999997 q0,-5 5,-5 h75 q5,0 5,5 v32.8 H0 Z" class="node-bkg node-no-border" id="node-2"/><line y2="37.8" x2="85" y1="37.8" x1="0" class="node-line-0"/></g><g transform="translate(42.5, 5)" text-anchor="middle" dominant-baseline="middle" alignment-baseline="middle" dy="1em"><g><rect style="stroke: none" class="background"/><text style="" y="-10.1"><tspan dy="1.1em" y="-0.1em" x="0" class="text-outer-tspan"><tspan font-weight="normal" class="text-inner-tspan" font-style="normal">传输加密</tspan></tspan></text></g></g></g><g transform="translate(510.8586352501312, 430.7548453794038)" class="mindmap-node section-0"><g><path d="M0 32.8 v-27.799999999999997 q0,-5 5,-5 h75 q5,0 5,5 v32.8 H0 Z" class="node-bkg node-no-border" id="node-5"/><line y2="37.8" x2="85" y1="37.8" x1="0" class="node-line-0"/></g><g transform="translate(42.5, 5)" text-anchor="middle" dominant-baseline="middle" alignment-baseline="middle" dy="1em"><g><rect style="stroke: none" class="background"/><text style="" y="-10.1"><tspan dy="1.1em" y="-0.1em" x="0" class="text-outer-tspan"><tspan font-weight="normal" class="text-inner-tspan" font-style="normal">认证机制</tspan></tspan></text></g></g></g><g transform="translate(274.5587349743972, 420.52903962232125)" class="mindmap-node section-0"><g><path d="M0 32.8 v-27.799999999999997 q0,-5 5,-5 h76 q5,0 5,5 v32.8 H0 Z" class="node-bkg node-no-border" id="node-10"/><line y2="37.8" x2="86" y1="37.8" x1="0" class="node-line-0"/></g><g transform="translate(43, 5)" text-anchor="middle" dominant-baseline="middle" alignment-baseline="middle" dy="1em"><g><rect style="stroke: none" class="background"/><text style="" y="-10.1"><tspan dy="1.1em" y="-0.1em" x="0" class="text-outer-tspan"><tspan font-weight="normal" class="text-inner-tspan" font-style="normal">扩展安全</tspan></tspan></text></g></g></g><g transform="translate(141.2107936106861, 214.52062903895848)" class="mindmap-node section-1"><g><path d="M0 32.8 v-27.799999999999997 q0,-5 5,-5 h75 q5,0 5,5 v32.8 H0 Z" class="node-bkg node-no-border" id="node-15"/><line y2="37.8" x2="85" y1="37.8" x1="0" class="node-line-1"/></g><g transform="translate(42.5, 5)" text-anchor="middle" dominant-baseline="middle" alignment-baseline="middle" dy="1em"><g><rect style="stroke: none" class="background"/><text style="" y="-10.1"><tspan dy="1.1em" y="-0.1em" x="0" class="text-outer-tspan"><tspan font-weight="normal" class="text-inner-tspan" font-style="normal">传输加密</tspan></tspan></text></g></g></g><g transform="translate(203.16741234352799, 107.25644911879255)" class="mindmap-node section-1"><g><path d="M0 32.8 v-27.799999999999997 q0,-5 5,-5 h75 q5,0 5,5 v32.8 H0 Z" class="node-bkg node-no-border" id="node-18"/><line y2="37.8" x2="85" y1="37.8" x1="0" class="node-line-1"/></g><g transform="translate(42.5, 5)" text-anchor="middle" dominant-baseline="middle" alignment-baseline="middle" dy="1em"><g><rect style="stroke: none" class="background"/><text style="" y="-10.1"><tspan dy="1.1em" y="-0.1em" x="0" class="text-outer-tspan"><tspan font-weight="normal" class="text-inner-tspan" font-style="normal">认证机制</tspan></tspan></text></g></g></g><g transform="translate(392.9345426035155, 114.1190676049842)" class="mindmap-node section-1"><g><path d="M0 32.8 v-27.799999999999997 q0,-5 5,-5 h76 q5,0 5,5 v32.8 H0 Z" class="node-bkg node-no-border" id="node-21"/><line y2="37.8" x2="86" y1="37.8" x1="0" class="node-line-1"/></g><g transform="translate(43, 5)" text-anchor="middle" dominant-baseline="middle" alignment-baseline="middle" dy="1em"><g><rect style="stroke: none" class="background"/><text style="" y="-10.1"><tspan dy="1.1em" y="-0.1em" x="0" class="text-outer-tspan"><tspan font-weight="normal" class="text-inner-tspan" font-style="normal">连接安全</tspan></tspan></text></g></g></g><g transform="translate(472.67528258027676, 216.6375241328912)" class="mindmap-node section-0"><g><path d="M0 32.8 v-27.799999999999997 q0,-5 5,-5 h110.8984375 q5,0 5,5 v32.8 H0 Z" class="node-bkg node-no-border" id="node-3"/><line y2="37.8" x2="120.8984375" y1="37.8" x1="0" class="node-line-0"/></g><g transform="translate(60.44921875, 5)" text-anchor="middle" dominant-baseline="middle" alignment-baseline="middle" dy="1em"><g><rect style="stroke: none" class="background"/><text style="" y="-10.1"><tspan dy="1.1em" y="-0.1em" x="0" class="text-outer-tspan"><tspan font-weight="normal" class="text-inner-tspan" font-style="normal">STARTTLS升级</tspan></tspan></text></g></g></g><g transform="translate(679.7403775956465, 250.92290475699738)" class="mindmap-node section-0"><g><path d="M0 32.8 v-27.799999999999997 q0,-5 5,-5 h99.09375 q5,0 5,5 v32.8 H0 Z" class="node-bkg node-no-border" id="node-4"/><line y2="37.8" x2="109.09375" y1="37.8" x1="0" class="node-line-0"/></g><g transform="translate(54.546875, 5)" text-anchor="middle" dominant-baseline="middle" alignment-baseline="middle" dy="1em"><g><rect style="stroke: none" class="background"/><text style="" y="-10.1"><tspan dy="1.1em" y="-0.1em" x="0" class="text-outer-tspan"><tspan font-weight="normal" class="text-inner-tspan" font-style="normal">直接TLS连接</tspan></tspan></text></g></g></g><g transform="translate(641.5435314431426, 371.9030845831929)" class="mindmap-node section-0"><g><path d="M0 32.8 v-27.799999999999997 q0,-5 5,-5 h84.125 q5,0 5,5 v32.8 H0 Z" class="node-bkg node-no-border" id="node-6"/><line y2="37.8" x2="94.125" y1="37.8" x1="0" class="node-line-0"/></g><g transform="translate(47.0625, 5)" text-anchor="middle" dominant-baseline="middle" alignment-baseline="middle" dy="1em"><g><rect style="stroke: none" class="background"/><text style="" y="-10.1"><tspan dy="1.1em" y="-0.1em" x="0" class="text-outer-tspan"><tspan font-weight="normal" class="text-inner-tspan" font-style="normal">PLAIN认证</tspan></tspan></text></g></g></g><g transform="translate(541.0959555964879, 520.8914913204994)" class="mindmap-node section-0"><g><path d="M0 32.8 v-27.799999999999997 q0,-5 5,-5 h87.3671875 q5,0 5,5 v32.8 H0 Z" class="node-bkg node-no-border" id="node-7"/><line y2="37.8" x2="97.3671875" y1="37.8" x1="0" class="node-line-0"/></g><g transform="translate(48.68359375, 5)" text-anchor="middle" dominant-baseline="middle" alignment-baseline="middle" dy="1em"><g><rect style="stroke: none" class="background"/><text style="" y="-10.1"><tspan dy="1.1em" y="-0.1em" x="0" class="text-outer-tspan"><tspan font-weight="normal" class="text-inner-tspan" font-style="normal">LOGIN认证</tspan></tspan></text></g></g></g><g transform="translate(652.8020111982313, 463.94298498016036)" class="mindmap-node section-0"><g><path d="M0 32.8 v-27.799999999999997 q0,-5 5,-5 h118.1015625 q5,0 5,5 v32.8 H0 Z" class="node-bkg node-no-border" id="node-8"/><line y2="37.8" x2="128.1015625" y1="37.8" x1="0" class="node-line-0"/></g><g transform="translate(64.05078125, 5)" text-anchor="middle" dominant-baseline="middle" alignment-baseline="middle" dy="1em"><g><rect style="stroke: none" class="background"/><text style="" y="-10.1"><tspan dy="1.1em" y="-0.1em" x="0" class="text-outer-tspan"><tspan font-weight="normal" class="text-inner-tspan" font-style="normal">CRAM-MD5摘要</tspan></tspan></text></g></g></g><g transform="translate(385.58763770247026, 495.6921315691793)" class="mindmap-node section-0"><g><path d="M0 32.8 v-27.799999999999997 q0,-5 5,-5 h101.7421875 q5,0 5,5 v32.8 H0 Z" class="node-bkg node-no-border" id="node-9"/><line y2="37.8" x2="111.7421875" y1="37.8" x1="0" class="node-line-0"/></g><g transform="translate(55.87109375, 5)" text-anchor="middle" dominant-baseline="middle" alignment-baseline="middle" dy="1em"><g><rect style="stroke: none" class="background"/><text style="" y="-10.1"><tspan dy="1.1em" y="-0.1em" x="0" class="text-outer-tspan"><tspan font-weight="normal" class="text-inner-tspan" font-style="normal">OAUTH2令牌</tspan></tspan></text></g></g></g><g transform="translate(201.76643043644572, 505.8086103467715)" class="mindmap-node section-0"><g><path d="M0 32.8 v-27.799999999999997 q0,-5 5,-5 h116.015625 q5,0 5,5 v32.8 H0 Z" class="node-bkg node-no-border" id="node-11"/><line y2="37.8" x2="126.015625" y1="37.8" x1="0" class="node-line-0"/></g><g transform="translate(63.0078125, 5)" text-anchor="middle" dominant-baseline="middle" alignment-baseline="middle" dy="1em"><g><rect style="stroke: none" class="background"/><text style="" y="-10.1"><tspan dy="1.1em" y="-0.1em" x="0" class="text-outer-tspan"><tspan font-weight="normal" class="text-inner-tspan" font-style="normal">SPF发送方策略</tspan></tspan></text></g></g></g><g transform="translate(188.92309374024387, 344.6981589968206)" class="mindmap-node section-0"><g><path d="M0 32.8 v-27.799999999999997 q0,-5 5,-5 h108.828125 q5,0 5,5 v32.8 H0 Z" class="node-bkg node-no-border" id="node-12"/><line y2="37.8" x2="118.828125" y1="37.8" x1="0" class="node-line-0"/></g><g transform="translate(59.4140625, 5)" text-anchor="middle" dominant-baseline="middle" alignment-baseline="middle" dy="1em"><g><rect style="stroke: none" class="background"/><text style="" y="-10.1"><tspan dy="1.1em" y="-0.1em" x="0" class="text-outer-tspan"><tspan font-weight="normal" class="text-inner-tspan" font-style="normal">DKIM数字签名</tspan></tspan></text></g></g></g><g transform="translate(82.95027111520471, 431.41354162657564)" class="mindmap-node section-0"><g><path d="M0 32.8 v-27.799999999999997 q0,-5 5,-5 h124.484375 q5,0 5,5 v32.8 H0 Z" class="node-bkg node-no-border" id="node-13"/><line y2="37.8" x2="134.484375" y1="37.8" x1="0" class="node-line-0"/></g><g transform="translate(67.2421875, 5)" text-anchor="middle" dominant-baseline="middle" alignment-baseline="middle" dy="1em"><g><rect style="stroke: none" class="background"/><text style="" y="-10.1"><tspan dy="1.1em" y="-0.1em" x="0" class="text-outer-tspan"><tspan font-weight="normal" class="text-inner-tspan" font-style="normal">DMARC域名认证</tspan></tspan></text></g></g></g><g transform="translate(34.409919420792335, 285.53964566744486)" class="mindmap-node section-1"><g><path d="M0 32.8 v-27.799999999999997 q0,-5 5,-5 h98.96875 q5,0 5,5 v32.8 H0 Z" class="node-bkg node-no-border" id="node-16"/><line y2="37.8" x2="108.96875" y1="37.8" x1="0" class="node-line-1"/></g><g transform="translate(54.484375, 5)" text-anchor="middle" dominant-baseline="middle" alignment-baseline="middle" dy="1em"><g><rect style="stroke: none" class="background"/><text style="" y="-10.1"><tspan dy="1.1em" y="-0.1em" x="0" class="text-outer-tspan"><tspan font-weight="normal" class="text-inner-tspan" font-style="normal">SSL/TLS连接</tspan></tspan></text></g></g></g><g transform="translate(15, 176.79941366716406)" class="mindmap-node section-1"><g><rect width="73" ry="20" rx="20" height="47.8" class="node-bkg node-rounded-rect" id="node-17"/></g><g transform="translate(36.5, 10)" text-anchor="middle" dominant-baseline="middle" alignment-baseline="middle" dy="1em"><g><rect style="stroke: none" class="background"/><text style="" y="-10.1"><tspan dy="1.1em" y="-0.1em" x="0" class="text-outer-tspan"><tspan font-weight="normal" class="text-inner-tspan" font-style="normal">少见</tspan></tspan></text></g></g></g><g transform="translate(19.070488495071913, 71.17813886972232)" class="mindmap-node section-1"><g><path d="M0 32.8 v-27.799999999999997 q0,-5 5,-5 h119.3125 q5,0 5,5 v32.8 H0 Z" class="node-bkg node-no-border" id="node-19"/><line y2="37.8" x2="129.3125" y1="37.8" x1="0" class="node-line-1"/></g><g transform="translate(64.65625, 5)" text-anchor="middle" dominant-baseline="middle" alignment-baseline="middle" dy="1em"><g><rect style="stroke: none" class="background"/><text style="" y="-10.1"><tspan dy="1.1em" y="-0.1em" x="0" class="text-outer-tspan"><tspan font-weight="normal" class="text-inner-tspan" font-style="normal">USER/PASS明文</tspan></tspan></text></g></g></g><g transform="translate(169.1385545915773, 15)" class="mindmap-node section-1"><g><path d="M0 32.8 v-27.799999999999997 q0,-5 5,-5 h114.0625 q5,0 5,5 v32.8 H0 Z" class="node-bkg node-no-border" id="node-20"/><line y2="37.8" x2="124.0625" y1="37.8" x1="0" class="node-line-1"/></g><g transform="translate(62.03125, 5)" text-anchor="middle" dominant-baseline="middle" alignment-baseline="middle" dy="1em"><g><rect style="stroke: none" class="background"/><text style="" y="-10.1"><tspan dy="1.1em" y="-0.1em" x="0" class="text-outer-tspan"><tspan font-weight="normal" class="text-inner-tspan" font-style="normal">APOP摘要认证</tspan></tspan></text></g></g></g><g transform="translate(492.73976895077533, 43.301082599598374)" class="mindmap-node section-1"><g><path d="M0 32.8 v-27.799999999999997 q0,-5 5,-5 h75 q5,0 5,5 v32.8 H0 Z" class="node-bkg node-no-border" id="node-22"/><line y2="37.8" x2="85" y1="37.8" x1="0" class="node-line-1"/></g><g transform="translate(42.5, 5)" text-anchor="middle" dominant-baseline="middle" alignment-baseline="middle" dy="1em"><g><rect style="stroke: none" class="background"/><text style="" y="-10.1"><tspan dy="1.1em" y="-0.1em" x="0" class="text-outer-tspan"><tspan font-weight="normal" class="text-inner-tspan" font-style="normal">会话超时</tspan></tspan></text></g></g></g><g transform="translate(346.25362154647894, 26.598216690572883)" class="mindmap-node section-1"><g><path d="M0 32.8 v-27.799999999999997 q0,-5 5,-5 h91 q5,0 5,5 v32.8 H0 Z" class="node-bkg node-no-border" id="node-23"/><line y2="37.8" x2="101" y1="37.8" x1="0" class="node-line-1"/></g><g transform="translate(50.5, 5)" text-anchor="middle" dominant-baseline="middle" alignment-baseline="middle" dy="1em"><g><rect style="stroke: none" class="background"/><text style="" y="-10.1"><tspan dy="1.1em" y="-0.1em" x="0" class="text-outer-tspan"><tspan font-weight="normal" class="text-inner-tspan" font-style="normal">连接数限制</tspan></tspan></text></g></g></g><g transform="translate(534.9425322500327, 128.4462064233025)" class="mindmap-node section-1"><g><path d="M0 32.8 v-27.799999999999997 q0,-5 5,-5 h87.375 q5,0 5,5 v32.8 H0 Z" class="node-bkg node-no-border" id="node-24"/><line y2="37.8" x2="97.375" y1="37.8" x1="0" class="node-line-1"/></g><g transform="translate(48.6875, 5)" text-anchor="middle" dominant-baseline="middle" alignment-baseline="middle" dy="1em"><g><rect style="stroke: none" class="background"/><text style="" y="-10.1"><tspan dy="1.1em" y="-0.1em" x="0" class="text-outer-tspan"><tspan font-weight="normal" class="text-inner-tspan" font-style="normal">IP访问控制</tspan></tspan></text></g></g></g></g></svg>