<svg aria-roledescription="mindmap" role="graphics-document document" viewBox="5 5 1081.439453125 624.1533203125" style="max-width: 1081.44px; background-color: white;" xmlns:xlink="http://www.w3.org/1999/xlink" xmlns="http://www.w3.org/2000/svg" width="100%" id="my-svg"><style>#my-svg{font-family:"trebuchet ms",verdana,arial,sans-serif;font-size:16px;fill:#333;}@keyframes edge-animation-frame{from{stroke-dashoffset:0;}}@keyframes dash{to{stroke-dashoffset:0;}}#my-svg .edge-animation-slow{stroke-dasharray:9,5!important;stroke-dashoffset:900;animation:dash 50s linear infinite;stroke-linecap:round;}#my-svg .edge-animation-fast{stroke-dasharray:9,5!important;stroke-dashoffset:900;animation:dash 20s linear infinite;stroke-linecap:round;}#my-svg .error-icon{fill:#552222;}#my-svg .error-text{fill:#552222;stroke:#552222;}#my-svg .edge-thickness-normal{stroke-width:1px;}#my-svg .edge-thickness-thick{stroke-width:3.5px;}#my-svg .edge-pattern-solid{stroke-dasharray:0;}#my-svg .edge-thickness-invisible{stroke-width:0;fill:none;}#my-svg .edge-pattern-dashed{stroke-dasharray:3;}#my-svg .edge-pattern-dotted{stroke-dasharray:2;}#my-svg .marker{fill:#333333;stroke:#333333;}#my-svg .marker.cross{stroke:#333333;}#my-svg svg{font-family:"trebuchet ms",verdana,arial,sans-serif;font-size:16px;}#my-svg p{margin:0;}#my-svg .edge{stroke-width:3;}#my-svg .section--1 rect,#my-svg .section--1 path,#my-svg .section--1 circle,#my-svg .section--1 polygon,#my-svg .section--1 path{fill:hsl(240, 100%, 76.2745098039%);}#my-svg .section--1 text{fill:#ffffff;}#my-svg .node-icon--1{font-size:40px;color:#ffffff;}#my-svg .section-edge--1{stroke:hsl(240, 100%, 76.2745098039%);}#my-svg .edge-depth--1{stroke-width:17;}#my-svg .section--1 line{stroke:hsl(60, 100%, 86.2745098039%);stroke-width:3;}#my-svg .disabled,#my-svg .disabled circle,#my-svg .disabled text{fill:lightgray;}#my-svg .disabled text{fill:#efefef;}#my-svg .section-0 rect,#my-svg .section-0 path,#my-svg .section-0 circle,#my-svg .section-0 polygon,#my-svg .section-0 path{fill:hsl(60, 100%, 73.5294117647%);}#my-svg .section-0 text{fill:black;}#my-svg .node-icon-0{font-size:40px;color:black;}#my-svg .section-edge-0{stroke:hsl(60, 100%, 73.5294117647%);}#my-svg .edge-depth-0{stroke-width:14;}#my-svg .section-0 line{stroke:hsl(240, 100%, 83.5294117647%);stroke-width:3;}#my-svg .disabled,#my-svg .disabled circle,#my-svg .disabled text{fill:lightgray;}#my-svg .disabled text{fill:#efefef;}#my-svg .section-1 rect,#my-svg .section-1 path,#my-svg .section-1 circle,#my-svg .section-1 polygon,#my-svg .section-1 path{fill:hsl(80, 100%, 76.2745098039%);}#my-svg .section-1 text{fill:black;}#my-svg .node-icon-1{font-size:40px;color:black;}#my-svg .section-edge-1{stroke:hsl(80, 100%, 76.2745098039%);}#my-svg .edge-depth-1{stroke-width:11;}#my-svg .section-1 line{stroke:hsl(260, 100%, 86.2745098039%);stroke-width:3;}#my-svg .disabled,#my-svg .disabled circle,#my-svg .disabled text{fill:lightgray;}#my-svg .disabled text{fill:#efefef;}#my-svg .section-2 rect,#my-svg .section-2 path,#my-svg .section-2 circle,#my-svg .section-2 polygon,#my-svg .section-2 path{fill:hsl(270, 100%, 76.2745098039%);}#my-svg .section-2 text{fill:#ffffff;}#my-svg .node-icon-2{font-size:40px;color:#ffffff;}#my-svg .section-edge-2{stroke:hsl(270, 100%, 76.2745098039%);}#my-svg .edge-depth-2{stroke-width:8;}#my-svg .section-2 line{stroke:hsl(90, 100%, 86.2745098039%);stroke-width:3;}#my-svg .disabled,#my-svg .disabled circle,#my-svg .disabled text{fill:lightgray;}#my-svg .disabled text{fill:#efefef;}#my-svg .section-3 rect,#my-svg .section-3 path,#my-svg .section-3 circle,#my-svg .section-3 polygon,#my-svg .section-3 path{fill:hsl(300, 100%, 76.2745098039%);}#my-svg .section-3 text{fill:black;}#my-svg .node-icon-3{font-size:40px;color:black;}#my-svg .section-edge-3{stroke:hsl(300, 100%, 76.2745098039%);}#my-svg .edge-depth-3{stroke-width:5;}#my-svg .section-3 line{stroke:hsl(120, 100%, 86.2745098039%);stroke-width:3;}#my-svg .disabled,#my-svg .disabled circle,#my-svg .disabled text{fill:lightgray;}#my-svg .disabled text{fill:#efefef;}#my-svg .section-4 rect,#my-svg .section-4 path,#my-svg .section-4 circle,#my-svg .section-4 polygon,#my-svg .section-4 path{fill:hsl(330, 100%, 76.2745098039%);}#my-svg .section-4 text{fill:black;}#my-svg .node-icon-4{font-size:40px;color:black;}#my-svg .section-edge-4{stroke:hsl(330, 100%, 76.2745098039%);}#my-svg .edge-depth-4{stroke-width:2;}#my-svg .section-4 line{stroke:hsl(150, 100%, 86.2745098039%);stroke-width:3;}#my-svg .disabled,#my-svg .disabled circle,#my-svg .disabled text{fill:lightgray;}#my-svg .disabled text{fill:#efefef;}#my-svg .section-5 rect,#my-svg .section-5 path,#my-svg .section-5 circle,#my-svg .section-5 polygon,#my-svg .section-5 path{fill:hsl(0, 100%, 76.2745098039%);}#my-svg .section-5 text{fill:black;}#my-svg .node-icon-5{font-size:40px;color:black;}#my-svg .section-edge-5{stroke:hsl(0, 100%, 76.2745098039%);}#my-svg .edge-depth-5{stroke-width:-1;}#my-svg .section-5 line{stroke:hsl(180, 100%, 86.2745098039%);stroke-width:3;}#my-svg .disabled,#my-svg .disabled circle,#my-svg .disabled text{fill:lightgray;}#my-svg .disabled text{fill:#efefef;}#my-svg .section-6 rect,#my-svg .section-6 path,#my-svg .section-6 circle,#my-svg .section-6 polygon,#my-svg .section-6 path{fill:hsl(30, 100%, 76.2745098039%);}#my-svg .section-6 text{fill:black;}#my-svg .node-icon-6{font-size:40px;color:black;}#my-svg .section-edge-6{stroke:hsl(30, 100%, 76.2745098039%);}#my-svg .edge-depth-6{stroke-width:-4;}#my-svg .section-6 line{stroke:hsl(210, 100%, 86.2745098039%);stroke-width:3;}#my-svg .disabled,#my-svg .disabled circle,#my-svg .disabled text{fill:lightgray;}#my-svg .disabled text{fill:#efefef;}#my-svg .section-7 rect,#my-svg .section-7 path,#my-svg .section-7 circle,#my-svg .section-7 polygon,#my-svg .section-7 path{fill:hsl(90, 100%, 76.2745098039%);}#my-svg .section-7 text{fill:black;}#my-svg .node-icon-7{font-size:40px;color:black;}#my-svg .section-edge-7{stroke:hsl(90, 100%, 76.2745098039%);}#my-svg .edge-depth-7{stroke-width:-7;}#my-svg .section-7 line{stroke:hsl(270, 100%, 86.2745098039%);stroke-width:3;}#my-svg .disabled,#my-svg .disabled circle,#my-svg .disabled text{fill:lightgray;}#my-svg .disabled text{fill:#efefef;}#my-svg .section-8 rect,#my-svg .section-8 path,#my-svg .section-8 circle,#my-svg .section-8 polygon,#my-svg .section-8 path{fill:hsl(150, 100%, 76.2745098039%);}#my-svg .section-8 text{fill:black;}#my-svg .node-icon-8{font-size:40px;color:black;}#my-svg .section-edge-8{stroke:hsl(150, 100%, 76.2745098039%);}#my-svg .edge-depth-8{stroke-width:-10;}#my-svg .section-8 line{stroke:hsl(330, 100%, 86.2745098039%);stroke-width:3;}#my-svg .disabled,#my-svg .disabled circle,#my-svg .disabled text{fill:lightgray;}#my-svg .disabled text{fill:#efefef;}#my-svg .section-9 rect,#my-svg .section-9 path,#my-svg .section-9 circle,#my-svg .section-9 polygon,#my-svg .section-9 path{fill:hsl(180, 100%, 76.2745098039%);}#my-svg .section-9 text{fill:black;}#my-svg .node-icon-9{font-size:40px;color:black;}#my-svg .section-edge-9{stroke:hsl(180, 100%, 76.2745098039%);}#my-svg .edge-depth-9{stroke-width:-13;}#my-svg .section-9 line{stroke:hsl(0, 100%, 86.2745098039%);stroke-width:3;}#my-svg .disabled,#my-svg .disabled circle,#my-svg .disabled text{fill:lightgray;}#my-svg .disabled text{fill:#efefef;}#my-svg .section-10 rect,#my-svg .section-10 path,#my-svg .section-10 circle,#my-svg .section-10 polygon,#my-svg .section-10 path{fill:hsl(210, 100%, 76.2745098039%);}#my-svg .section-10 text{fill:black;}#my-svg .node-icon-10{font-size:40px;color:black;}#my-svg .section-edge-10{stroke:hsl(210, 100%, 76.2745098039%);}#my-svg .edge-depth-10{stroke-width:-16;}#my-svg .section-10 line{stroke:hsl(30, 100%, 86.2745098039%);stroke-width:3;}#my-svg .disabled,#my-svg .disabled circle,#my-svg .disabled text{fill:lightgray;}#my-svg .disabled text{fill:#efefef;}#my-svg .section-root rect,#my-svg .section-root path,#my-svg .section-root circle,#my-svg .section-root polygon{fill:hsl(240, 100%, 46.2745098039%);}#my-svg .section-root text{fill:#ffffff;}#my-svg .icon-container{height:100%;display:flex;justify-content:center;align-items:center;}#my-svg .edge{fill:none;}#my-svg .mindmap-node-label{dy:1em;alignment-baseline:middle;text-anchor:middle;dominant-baseline:middle;text-align:center;}#my-svg :root{--mermaid-font-family:"trebuchet ms",verdana,arial,sans-serif;}</style><g/><g class="mindmap-edges"><path class="edge section-edge-0 edge-depth-1" d="M 647.7647140912801,260.2968402978797 L 672.3052981639564,230.4581209810301 L696.8458822366326,200.61940166418054"/><path class="edge section-edge-0 edge-depth-1" d="M 626.6307322373502,262.3791727526457 L 594.2685395170336,235.88127516761563 L561.906346796717,209.3833775825856"/><path class="edge section-edge-0 edge-depth-1" d="M 652.9526740078649,268.9771909397838 L 725.5233756283405,254.652524555644 L798.0940772488162,240.32785817150426"/><path class="edge section-edge-0 edge-depth-1" d="M 623.2432780498007,271.43515263281785 L 579.4584686914037,270.13029163124213 L535.6736593330068,268.8254306296664"/><path class="edge section-edge-0 edge-depth-0" d="M 514.64247978016,326.65756903269795 L 569.5827734504101,302.3086238897168 L624.5230671206601,277.9596787467356"/><path class="edge section-edge-1 edge-depth-2" d="M 242.92175063346698,283.3648455446255 L 281.5933019970073,302.0433160545781 L320.2648533605476,320.7217865645307"/><path class="edge section-edge-1 edge-depth-2" d="M 224.30467620420976,262.7382052261909 L 214.92656086048265,236.856670619069 L205.54844551675555,210.97513601194711"/><path class="edge section-edge-1 edge-depth-2" d="M 214.94634786079877,272.8830535751385 L 156.701081035563,256.9498829331659 L98.45581421032722,241.01671229119333"/><path class="edge section-edge-1 edge-depth-2" d="M 214.81601659164895,280.28715766888405 L 159.52734607134298,293.3387614614107 L104.238675551037,306.3903652539373"/><path class="edge section-edge-1 edge-depth-2" d="M 224.16818117198784,290.8934543900133 L 213.63748958362453,319.09898336507416 L203.10679799526122,347.30451234013503"/><path class="edge section-edge-1 edge-depth-1" d="M 376.5070320999404,232.42182542939656 L 310.14067018775734,252.4632236646009 L243.7743082755743,272.5046218998052"/><path class="edge section-edge-1 edge-depth-2" d="M 281.25791640787384,136.75480511245763 L 326.77098025607484,117.74982427999115 L372.28404410427584,98.74484344752466"/><path class="edge section-edge-1 edge-depth-2" d="M 253.4829267998149,136.97922236247288 L 196.02399096808557,114.0691607984813 L138.5650551363563,91.15909923448973"/><path class="edge section-edge-1 edge-depth-2" d="M 268.2177278507556,127.55614106774325 L 270.0679906892632,92.9786354073631 L271.9182535277708,58.401129746982946"/><path class="edge section-edge-1 edge-depth-2" d="M 252.43821724067476,143.34684691863217 L 179.58310782562376,147.29718785008382 L106.72799841057275,151.24752878153546"/><path class="edge section-edge-1 edge-depth-1" d="M 378.5376715710705,219.54161451037868 L 329.1413940060109,185.31011246474728 L279.7451164409513,151.07861041911588"/><path class="edge section-edge-1 edge-depth-2" d="M 476.5844359501243,119.14341933358617 L 464.95686308251834,83.64902156919047 L453.32929021491225,48.15462380479475"/><path class="edge section-edge-1 edge-depth-2" d="M 496.252795459154,133.20072389124635 L 555.4186962788885,132.42235180832952 L614.5845970986231,131.6439797254127"/><path class="edge section-edge-1 edge-depth-2" d="M 494.28597820869356,125.97039365186211 L 540.3067972220397,99.74038039713398 L586.3276162353859,73.51036714240584"/><path class="edge section-edge-1 edge-depth-1" d="M 401.2239499964995,217.2354105333372 L 436.0603328527941,180.74177818379528 L470.89671570908865,144.24814583425336"/><path class="edge section-edge-1 edge-depth-0" d="M 490.05839928064916,322.3993280555224 L 445.8977489151814,280.41039075585314 L401.73709854971355,238.42145345618388"/><path class="edge section-edge-2 edge-depth-1" d="M 748.6503774706669,357.84882508605585 L 740.2389610886039,387.9508043987942 L731.827544706541,418.0527837115326"/><path class="edge section-edge-2 edge-depth-1" d="M 762.1278252717627,355.058756239459 L 786.085286379887,384.6394994009167 L810.0427474880112,414.2202425623744"/><path class="edge section-edge-2 edge-depth-1" d="M 767.6794510685277,342.92017780181374 L 879.0828901514619,339.3381665836016 L990.4863292343964,335.7561553653895"/><path class="edge section-edge-2 edge-depth-1" d="M 766.741332302965,338.1599669901357 L 821.5520229011063,317.7152964959635 L876.3627134992475,297.27062600179136"/><path class="edge section-edge-2 edge-depth-1" d="M 767.0263684061889,347.8054367592957 L 828.7029448192594,366.74479300630554 L890.3795212323299,385.6841492533154"/><path class="edge section-edge-2 edge-depth-0" d="M 515.9154795322703,333.37024649181785 L 626.808062195488,338.068749781632 L737.7006448587057,342.76725307144613"/><path class="edge section-edge-3 edge-depth-1" d="M 365.72133076644894,421.57692241049034 L 327.8786139467935,445.24501539172525 L290.03589712713807,468.91310837296015"/><path class="edge section-edge-3 edge-depth-1" d="M 363.52435656576245,415.2225169113249 L 278.06684863869,424.38762353613106 L192.60934071161748,433.55273016093713"/><path class="edge section-edge-3 edge-depth-2" d="M 368.67366276962423,528.2675863203117 L 388.8326209758088,558.0495363381423 L408.9915791819934,587.8314863559729"/><path class="edge section-edge-3 edge-depth-2" d="M 346.7920322177068,522.4385950847206 L 301.5811712886742,544.5612991208291 L256.3703103596417,566.6840031569375"/><path class="edge section-edge-3 edge-depth-1" d="M 375.8132716549823,428.39140417367184 L 369.3521592653806,464.734350949228 L362.89104687577884,501.0772977247841"/><path class="edge section-edge-3 edge-depth-0" d="M 488.4118633600415,341.0010505289477 L 439.68387694898297,373.17912246442467 L390.95589053792435,405.35719439990163"/><path class="edge section-edge-4 edge-depth-1" d="M 576.2022503058748,423.98944863021154 L 521.2185958160403,445.40848878430285 L466.23494132620567,466.82752893839415"/><path class="edge section-edge-4 edge-depth-1" d="M 601.0817575527813,428.84682384179496 L 632.7496569812907,458.7706552857751 L664.4175564098002,488.69448672975534"/><path class="edge section-edge-4 edge-depth-1" d="M 585.8181784822266,432.8967548211013 L 575.7902171073408,465.89876215643613 L565.7622557324552,498.900769491771"/><path class="edge section-edge-4 edge-depth-0" d="M 511.74191350143,343.1313872613873 L 545.5540543028928,375.63998133990526 L579.3661951043556,408.1485754184232"/></g><g class="mindmap-nodes"><g transform="translate(440.9211129695884, 313.8352682824967)" class="mindmap-node section--1 section-root"><g transform="translate(60.0078125, 18.9)"><circle r="60.0078125" class="node-bkg node-circle" id="node-0"/></g><g transform="translate(60.0078125, 5)" text-anchor="middle" dominant-baseline="middle" alignment-baseline="middle" dy="1em"><g><rect style="stroke: none" class="background"/><text style="" y="-10.1"><tspan dy="1.1em" y="-0.1em" x="0" class="text-outer-tspan"><tspan font-weight="normal" class="text-inner-tspan" font-style="normal">MIME</tspan><tspan font-weight="normal" class="text-inner-tspan" font-style="normal"> Headers</tspan></tspan></text></g></g></g><g transform="translate(595.7366214312317, 252.98197949693687)" class="mindmap-node section-0"><g><path d="M0 32.8 v-27.799999999999997 q0,-5 5,-5 h75 q5,0 5,5 v32.8 H0 Z" class="node-bkg node-no-border" id="node-1"/><line y2="37.8" x2="85" y1="37.8" x1="0" class="node-line-0"/></g><g transform="translate(42.5, 5)" text-anchor="middle" dominant-baseline="middle" alignment-baseline="middle" dy="1em"><g><rect style="stroke: none" class="background"/><text style="" y="-10.1"><tspan dy="1.1em" y="-0.1em" x="0" class="text-outer-tspan"><tspan font-weight="bold" class="text-inner-tspan" font-style="normal">顶级头部</tspan></tspan></text></g></g></g><g transform="translate(330.2962598607743, 209.18551322920962)" class="mindmap-node section-1"><g><path d="M0 32.8 v-27.799999999999997 q0,-5 5,-5 h111.140625 q5,0 5,5 v32.8 H0 Z" class="node-bkg node-no-border" id="node-6"/><line y2="37.8" x2="121.140625" y1="37.8" x1="0" class="node-line-1"/></g><g transform="translate(60.5703125, 5)" text-anchor="middle" dominant-baseline="middle" alignment-baseline="middle" dy="1em"><g><rect style="stroke: none" class="background"/><text style="" y="-10.1"><tspan dy="1.1em" y="-0.1em" x="0" class="text-outer-tspan"><tspan font-weight="bold" class="text-inner-tspan" font-style="normal">Content-Type</tspan></tspan></text></g></g></g><g transform="translate(642.2106364213876, 324.5022312807673)" class="mindmap-node section-2"><g><path d="M0 32.8 v-27.799999999999997 q0,-5 5,-5 h210.953125 q5,0 5,5 v32.8 H0 Z" class="node-bkg node-no-border" id="node-22"/><line y2="37.8" x2="220.953125" y1="37.8" x1="0" class="node-line-2"/></g><g transform="translate(110.4765625, 5)" text-anchor="middle" dominant-baseline="middle" alignment-baseline="middle" dy="1em"><g><rect style="stroke: none" class="background"/><text style="" y="-10.1"><tspan dy="1.1em" y="-0.1em" x="0" class="text-outer-tspan"><tspan font-weight="bold" class="text-inner-tspan" font-style="normal">Content-Transfer-Encoding</tspan></tspan></text></g></g></g><g transform="translate(294.8919534283774, 394.72297664635266)" class="mindmap-node section-3"><g><path d="M0 32.8 v-27.799999999999997 q0,-5 5,-5 h157.09375 q5,0 5,5 v32.8 H0 Z" class="node-bkg node-no-border" id="node-28"/><line y2="37.8" x2="167.09375" y1="37.8" x1="0" class="node-line-3"/></g><g transform="translate(83.546875, 5)" text-anchor="middle" dominant-baseline="middle" alignment-baseline="middle" dy="1em"><g><rect style="stroke: none" class="background"/><text style="" y="-10.1"><tspan dy="1.1em" y="-0.1em" x="0" class="text-outer-tspan"><tspan font-weight="bold" class="text-inner-tspan" font-style="normal">Content-Disposition</tspan></tspan></text></g></g></g><g transform="translate(540.0619956361971, 399.64469439731386)" class="mindmap-node section-4"><g><path d="M0 32.8 v-27.799999999999997 q0,-5 5,-5 h90.234375 q5,0 5,5 v32.8 H0 Z" class="node-bkg node-no-border" id="node-34"/><line y2="37.8" x2="100.234375" y1="37.8" x1="0" class="node-line-4"/></g><g transform="translate(50.1171875, 5)" text-anchor="middle" dominant-baseline="middle" alignment-baseline="middle" dy="1em"><g><rect style="stroke: none" class="background"/><text style="" y="-10.1"><tspan dy="1.1em" y="-0.1em" x="0" class="text-outer-tspan"><tspan font-weight="bold" class="text-inner-tspan" font-style="normal">Content-ID</tspan></tspan></text></g></g></g><g transform="translate(632.252881146681, 170.13426246512336)" class="mindmap-node section-0"><g><path d="M0 32.8 v-27.799999999999997 q0,-5 5,-5 h138.2421875 q5,0 5,5 v32.8 H0 Z" class="node-bkg node-no-border" id="node-2"/><line y2="37.8" x2="148.2421875" y1="37.8" x1="0" class="node-line-0"/></g><g transform="translate(74.12109375, 5)" text-anchor="middle" dominant-baseline="middle" alignment-baseline="middle" dy="1em"><g><rect style="stroke: none" class="background"/><text style="" y="-10.1"><tspan dy="1.1em" y="-0.1em" x="0" class="text-outer-tspan"><tspan font-weight="normal" class="text-inner-tspan" font-style="normal">MIME-Version:</tspan><tspan font-weight="normal" class="text-inner-tspan" font-style="normal"> 1.0</tspan></tspan></text></g></g></g><g transform="translate(500.53873885283554, 180.9805708382944)" class="mindmap-node section-0"><g><path d="M0 32.8 v-27.799999999999997 q0,-5 5,-5 h89.5234375 q5,0 5,5 v32.8 H0 Z" class="node-bkg node-no-border" id="node-3"/><line y2="37.8" x2="99.5234375" y1="37.8" x1="0" class="node-line-0"/></g><g transform="translate(49.76171875, 5)" text-anchor="middle" dominant-baseline="middle" alignment-baseline="middle" dy="1em"><g><rect style="stroke: none" class="background"/><text style="" y="-10.1"><tspan dy="1.1em" y="-0.1em" x="0" class="text-outer-tspan"><tspan font-weight="normal" class="text-inner-tspan" font-style="normal">Message-ID</tspan></tspan></text></g></g></g><g transform="translate(740.8023173254494, 218.52306961435113)" class="mindmap-node section-0"><g><path d="M0 32.8 v-27.799999999999997 q0,-5 5,-5 h134.015625 q5,0 5,5 v32.8 H0 Z" class="node-bkg node-no-border" id="node-4"/><line y2="37.8" x2="144.015625" y1="37.8" x1="0" class="node-line-0"/></g><g transform="translate(72.0078125, 5)" text-anchor="middle" dominant-baseline="middle" alignment-baseline="middle" dy="1em"><g><rect style="stroke: none" class="background"/><text style="" y="-10.1"><tspan dy="1.1em" y="-0.1em" x="0" class="text-outer-tspan"><tspan font-weight="normal" class="text-inner-tspan" font-style="normal">From/To/Subject</tspan></tspan></text></g></g></g><g transform="translate(493.8990659515757, 249.47860376554738)" class="mindmap-node section-0"><g><path d="M0 32.8 v-27.799999999999997 q0,-5 5,-5 h43.5625 q5,0 5,5 v32.8 H0 Z" class="node-bkg node-no-border" id="node-5"/><line y2="37.8" x2="53.5625" y1="37.8" x1="0" class="node-line-0"/></g><g transform="translate(26.78125, 5)" text-anchor="middle" dominant-baseline="middle" alignment-baseline="middle" dy="1em"><g><rect style="stroke: none" class="background"/><text style="" y="-10.1"><tspan dy="1.1em" y="-0.1em" x="0" class="text-outer-tspan"><tspan font-weight="normal" class="text-inner-tspan" font-style="normal">Date</tspan></tspan></text></g></g></g><g transform="translate(195.4147680147404, 257.9409340999922)" class="mindmap-node section-1"><g><path d="M0 32.8 v-27.799999999999997 q0,-5 5,-5 h58 q5,0 5,5 v32.8 H0 Z" class="node-bkg node-no-border" id="node-7"/><line y2="37.8" x2="68" y1="37.8" x1="0" class="node-line-1"/></g><g transform="translate(34, 5)" text-anchor="middle" dominant-baseline="middle" alignment-baseline="middle" dy="1em"><g><rect style="stroke: none" class="background"/><text style="" y="-10.1"><tspan dy="1.1em" y="-0.1em" x="0" class="text-outer-tspan"><tspan font-weight="normal" class="text-inner-tspan" font-style="normal">主类型</tspan></tspan></text></g></g></g><g transform="translate(233.4162156512475, 123.63471170028492)" class="mindmap-node section-1"><g><path d="M0 32.8 v-27.799999999999997 q0,-5 5,-5 h58 q5,0 5,5 v32.8 H0 Z" class="node-bkg node-no-border" id="node-13"/><line y2="37.8" x2="68" y1="37.8" x1="0" class="node-line-1"/></g><g transform="translate(34, 5)" text-anchor="middle" dominant-baseline="middle" alignment-baseline="middle" dy="1em"><g><rect style="stroke: none" class="background"/><text style="" y="-10.1"><tspan dy="1.1em" y="-0.1em" x="0" class="text-outer-tspan"><tspan font-weight="normal" class="text-inner-tspan" font-style="normal">子类型</tspan></tspan></text></g></g></g><g transform="translate(454.7540933448139, 114.49804313838092)" class="mindmap-node section-1"><g><path d="M0 32.8 v-27.799999999999997 q0,-5 5,-5 h43 q5,0 5,5 v32.8 H0 Z" class="node-bkg node-no-border" id="node-18"/><line y2="37.8" x2="53" y1="37.8" x1="0" class="node-line-1"/></g><g transform="translate(26.5, 5)" text-anchor="middle" dominant-baseline="middle" alignment-baseline="middle" dy="1em"><g><rect style="stroke: none" class="background"/><text style="" y="-10.1"><tspan dy="1.1em" y="-0.1em" x="0" class="text-outer-tspan"><tspan font-weight="normal" class="text-inner-tspan" font-style="normal">参数</tspan></tspan></text></g></g></g><g transform="translate(690.7907232558202, 408.59937751682116)" class="mindmap-node section-2"><g><rect width="74" ry="20" rx="20" height="47.8" class="node-bkg node-rounded-rect" id="node-23"/></g><g transform="translate(37, 10)" text-anchor="middle" dominant-baseline="middle" alignment-baseline="middle" dy="1em"><g><rect style="stroke: none" class="background"/><text style="" y="-10.1"><tspan dy="1.1em" y="-0.1em" x="0" class="text-outer-tspan"><tspan font-weight="normal" class="text-inner-tspan" font-style="normal">默认</tspan></tspan></text></g></g></g><g transform="translate(795.0497800883863, 406.9767675210661)" class="mindmap-node section-2"><g><path d="M0 32.8 v-27.799999999999997 q0,-5 5,-5 h38.8671875 q5,0 5,5 v32.8 H0 Z" class="node-bkg node-no-border" id="node-24"/><line y2="37.8" x2="48.8671875" y1="37.8" x1="0" class="node-line-2"/></g><g transform="translate(24.43359375, 5)" text-anchor="middle" dominant-baseline="middle" alignment-baseline="middle" dy="1em"><g><rect style="stroke: none" class="background"/><text style="" y="-10.1"><tspan dy="1.1em" y="-0.1em" x="0" class="text-outer-tspan"><tspan font-weight="normal" class="text-inner-tspan" font-style="normal">8bit</tspan></tspan></text></g></g></g><g transform="translate(934.5176438815365, 316.37410188643594)" class="mindmap-node section-2"><g><path d="M0 32.8 v-27.799999999999997 q0,-5 5,-5 h131.921875 q5,0 5,5 v32.8 H0 Z" class="node-bkg node-no-border" id="node-25"/><line y2="37.8" x2="141.921875" y1="37.8" x1="0" class="node-line-2"/></g><g transform="translate(70.9609375, 5)" text-anchor="middle" dominant-baseline="middle" alignment-baseline="middle" dy="1em"><g><rect style="stroke: none" class="background"/><text style="" y="-10.1"><tspan dy="1.1em" y="-0.1em" x="0" class="text-outer-tspan"><tspan font-weight="normal" class="text-inner-tspan" font-style="normal">quoted-printable</tspan></tspan></text></g></g></g><g transform="translate(855.459815630825, 273.12836171115976)" class="mindmap-node section-2"><g><path d="M0 32.8 v-27.799999999999997 q0,-5 5,-5 h59.9140625 q5,0 5,5 v32.8 H0 Z" class="node-bkg node-no-border" id="node-26"/><line y2="37.8" x2="69.9140625" y1="37.8" x1="0" class="node-line-2"/></g><g transform="translate(34.95703125, 5)" text-anchor="middle" dominant-baseline="middle" alignment-baseline="middle" dy="1em"><g><rect style="stroke: none" class="background"/><text style="" y="-10.1"><tspan dy="1.1em" y="-0.1em" x="0" class="text-outer-tspan"><tspan font-weight="normal" class="text-inner-tspan" font-style="normal">base64</tspan></tspan></text></g></g></g><g transform="translate(871.7968157171313, 371.1873547318438)" class="mindmap-node section-2"><g><path d="M0 32.8 v-27.799999999999997 q0,-5 5,-5 h55.84375 q5,0 5,5 v32.8 H0 Z" class="node-bkg node-no-border" id="node-27"/><line y2="37.8" x2="65.84375" y1="37.8" x1="0" class="node-line-2"/></g><g transform="translate(32.921875, 5)" text-anchor="middle" dominant-baseline="middle" alignment-baseline="middle" dy="1em"><g><rect style="stroke: none" class="background"/><text style="" y="-10.1"><tspan dy="1.1em" y="-0.1em" x="0" class="text-outer-tspan"><tspan font-weight="normal" class="text-inner-tspan" font-style="normal">binary</tspan></tspan></text></g></g></g><g transform="translate(247.1543369652096, 457.9670541370979)" class="mindmap-node section-3"><g><path d="M0 32.8 v-27.799999999999997 q0,-5 5,-5 h50.328125 q5,0 5,5 v32.8 H0 Z" class="node-bkg node-no-border" id="node-29"/><line y2="37.8" x2="60.328125" y1="37.8" x1="0" class="node-line-3"/></g><g transform="translate(30.1640625, 5)" text-anchor="middle" dominant-baseline="middle" alignment-baseline="middle" dy="1em"><g><rect style="stroke: none" class="background"/><text style="" y="-10.1"><tspan dy="1.1em" y="-0.1em" x="0" class="text-outer-tspan"><tspan font-weight="normal" class="text-inner-tspan" font-style="normal">inline</tspan></tspan></text></g></g></g><g transform="translate(125.73783759900255, 416.2522704259094)" class="mindmap-node section-3"><g><path d="M0 32.8 v-27.799999999999997 q0,-5 5,-5 h93.9140625 q5,0 5,5 v32.8 H0 Z" class="node-bkg node-no-border" id="node-30"/><line y2="37.8" x2="103.9140625" y1="37.8" x1="0" class="node-line-3"/></g><g transform="translate(51.95703125, 5)" text-anchor="middle" dominant-baseline="middle" alignment-baseline="middle" dy="1em"><g><rect style="stroke: none" class="background"/><text style="" y="-10.1"><tspan dy="1.1em" y="-0.1em" x="0" class="text-outer-tspan"><tspan font-weight="normal" class="text-inner-tspan" font-style="normal">attachment</tspan></tspan></text></g></g></g><g transform="translate(333.76549010238375, 496.94572525210333)" class="mindmap-node section-3"><g><path d="M0 32.8 v-27.799999999999997 q0,-5 5,-5 h43 q5,0 5,5 v32.8 H0 Z" class="node-bkg node-no-border" id="node-31"/><line y2="37.8" x2="53" y1="37.8" x1="0" class="node-line-3"/></g><g transform="translate(26.5, 5)" text-anchor="middle" dominant-baseline="middle" alignment-baseline="middle" dy="1em"><g><rect style="stroke: none" class="background"/><text style="" y="-10.1"><tspan dy="1.1em" y="-0.1em" x="0" class="text-outer-tspan"><tspan font-weight="normal" class="text-inner-tspan" font-style="normal">参数</tspan></tspan></text></g></g></g><g transform="translate(401.75800849588336, 453.3722831712919)" class="mindmap-node section-4"><g><path d="M0 32.8 v-27.799999999999997 q0,-5 5,-5 h91 q5,0 5,5 v32.8 H0 Z" class="node-bkg node-no-border" id="node-35"/><line y2="37.8" x2="101" y1="37.8" x1="0" class="node-line-4"/></g><g transform="translate(50.5, 5)" text-anchor="middle" dominant-baseline="middle" alignment-baseline="middle" dy="1em"><g><rect style="stroke: none" class="background"/><text style="" y="-10.1"><tspan dy="1.1em" y="-0.1em" x="0" class="text-outer-tspan"><tspan font-weight="normal" class="text-inner-tspan" font-style="normal">唯一标识符</tspan></tspan></text></g></g></g><g transform="translate(616.6873183263843, 480.0966161742365)" class="mindmap-node section-4"><g><path d="M0 32.8 v-27.799999999999997 q0,-5 5,-5 h107.265625 q5,0 5,5 v32.8 H0 Z" class="node-bkg node-no-border" id="node-36"/><line y2="37.8" x2="117.265625" y1="37.8" x1="0" class="node-line-4"/></g><g transform="translate(58.6328125, 5)" text-anchor="middle" dominant-baseline="middle" alignment-baseline="middle" dy="1em"><g><rect style="stroke: none" class="background"/><text style="" y="-10.1"><tspan dy="1.1em" y="-0.1em" x="0" class="text-outer-tspan"><tspan font-weight="normal" class="text-inner-tspan" font-style="normal">供</tspan><tspan font-weight="normal" class="text-inner-tspan" font-style="normal"> HTML</tspan><tspan font-weight="normal" class="text-inner-tspan" font-style="normal"> 引用</tspan></tspan></text></g></g></g><g transform="translate(531.9637510784846, 494.35282991555846)" class="mindmap-node section-4"><g><path d="M0 32.8 v-27.799999999999997 q0,-5 5,-5 h48.875 q5,0 5,5 v32.8 H0 Z" class="node-bkg node-no-border" id="node-37"/><line y2="37.8" x2="58.875" y1="37.8" x1="0" class="node-line-4"/></g><g transform="translate(29.4375, 5)" text-anchor="middle" dominant-baseline="middle" alignment-baseline="middle" dy="1em"><g><rect style="stroke: none" class="background"/><text style="" y="-10.1"><tspan dy="1.1em" y="-0.1em" x="0" class="text-outer-tspan"><tspan font-weight="normal" class="text-inner-tspan" font-style="normal">格式:</tspan></tspan></text></g></g></g><g transform="translate(308.7288672292742, 308.34569800916404)" class="mindmap-node section-1"><g><path d="M0 32.8 v-27.799999999999997 q0,-5 5,-5 h40.0859375 q5,0 5,5 v32.8 H0 Z" class="node-bkg node-no-border" id="node-8"/><line y2="37.8" x2="50.0859375" y1="37.8" x1="0" class="node-line-1"/></g><g transform="translate(25.04296875, 5)" text-anchor="middle" dominant-baseline="middle" alignment-baseline="middle" dy="1em"><g><rect style="stroke: none" class="background"/><text style="" y="-10.1"><tspan dy="1.1em" y="-0.1em" x="0" class="text-outer-tspan"><tspan font-weight="normal" class="text-inner-tspan" font-style="normal">text</tspan></tspan></text></g></g></g><g transform="translate(168.79772870622492, 177.97240713814585)" class="mindmap-node section-1"><g><path d="M0 32.8 v-27.799999999999997 q0,-5 5,-5 h53.28125 q5,0 5,5 v32.8 H0 Z" class="node-bkg node-no-border" id="node-9"/><line y2="37.8" x2="63.28125" y1="37.8" x1="0" class="node-line-1"/></g><g transform="translate(31.640625, 5)" text-anchor="middle" dominant-baseline="middle" alignment-baseline="middle" dy="1em"><g><rect style="stroke: none" class="background"/><text style="" y="-10.1"><tspan dy="1.1em" y="-0.1em" x="0" class="text-outer-tspan"><tspan font-weight="normal" class="text-inner-tspan" font-style="normal">image</tspan></tspan></text></g></g></g><g transform="translate(33.8194253063856, 218.15883176633963)" class="mindmap-node section-1"><g><path d="M0 32.8 v-27.799999999999997 q0,-5 5,-5 h90.3359375 q5,0 5,5 v32.8 H0 Z" class="node-bkg node-no-border" id="node-10"/><line y2="37.8" x2="100.3359375" y1="37.8" x1="0" class="node-line-1"/></g><g transform="translate(50.16796875, 5)" text-anchor="middle" dominant-baseline="middle" alignment-baseline="middle" dy="1em"><g><rect style="stroke: none" class="background"/><text style="" y="-10.1"><tspan dy="1.1em" y="-0.1em" x="0" class="text-outer-tspan"><tspan font-weight="normal" class="text-inner-tspan" font-style="normal">application</tspan></tspan></text></g></g></g><g transform="translate(45.54617412794556, 290.9365888228292)" class="mindmap-node section-1"><g><path d="M0 32.8 v-27.799999999999997 q0,-5 5,-5 h78.1875 q5,0 5,5 v32.8 H0 Z" class="node-bkg node-no-border" id="node-11"/><line y2="37.8" x2="88.1875" y1="37.8" x1="0" class="node-line-1"/></g><g transform="translate(44.09375, 5)" text-anchor="middle" dominant-baseline="middle" alignment-baseline="middle" dy="1em"><g><rect style="stroke: none" class="background"/><text style="" y="-10.1"><tspan dy="1.1em" y="-0.1em" x="0" class="text-outer-tspan"><tspan font-weight="normal" class="text-inner-tspan" font-style="normal">multipart</tspan></tspan></text></g></g></g><g transform="translate(157.66099240250867, 342.45703263015616)" class="mindmap-node section-1"><g><path d="M0 32.8 v-27.799999999999997 q0,-5 5,-5 h70.3984375 q5,0 5,5 v32.8 H0 Z" class="node-bkg node-no-border" id="node-12"/><line y2="37.8" x2="80.3984375" y1="37.8" x1="0" class="node-line-1"/></g><g transform="translate(40.19921875, 5)" text-anchor="middle" dominant-baseline="middle" alignment-baseline="middle" dy="1em"><g><rect style="stroke: none" class="background"/><text style="" y="-10.1"><tspan dy="1.1em" y="-0.1em" x="0" class="text-outer-tspan"><tspan font-weight="normal" class="text-inner-tspan" font-style="normal">message</tspan></tspan></text></g></g></g><g transform="translate(336.42261986090216, 74.06493685969735)" class="mindmap-node section-1"><g><path d="M0 32.8 v-27.799999999999997 q0,-5 5,-5 h89.40625 q5,0 5,5 v32.8 H0 Z" class="node-bkg node-no-border" id="node-14"/><line y2="37.8" x2="99.40625" y1="37.8" x1="0" class="node-line-1"/></g><g transform="translate(49.703125, 5)" text-anchor="middle" dominant-baseline="middle" alignment-baseline="middle" dy="1em"><g><rect style="stroke: none" class="background"/><text style="" y="-10.1"><tspan dy="1.1em" y="-0.1em" x="0" class="text-outer-tspan"><tspan font-weight="normal" class="text-inner-tspan" font-style="normal">plain,</tspan><tspan font-weight="normal" class="text-inner-tspan" font-style="normal"> html</tspan></tspan></text></g></g></g><g transform="translate(66.06145378492369, 66.70360989667768)" class="mindmap-node section-1"><g><path d="M0 32.8 v-27.799999999999997 q0,-5 5,-5 h107.140625 q5,0 5,5 v32.8 H0 Z" class="node-bkg node-no-border" id="node-15"/><line y2="37.8" x2="117.140625" y1="37.8" x1="0" class="node-line-1"/></g><g transform="translate(58.5703125, 5)" text-anchor="middle" dominant-baseline="middle" alignment-baseline="middle" dy="1em"><g><rect style="stroke: none" class="background"/><text style="" y="-10.1"><tspan dy="1.1em" y="-0.1em" x="0" class="text-outer-tspan"><tspan font-weight="normal" class="text-inner-tspan" font-style="normal">gif,</tspan><tspan font-weight="normal" class="text-inner-tspan" font-style="normal"> png,</tspan><tspan font-weight="normal" class="text-inner-tspan" font-style="normal"> jpeg</tspan></tspan></text></g></g></g><g transform="translate(198.86820322727885, 24.522559114441265)" class="mindmap-node section-1"><g><path d="M0 32.8 v-27.799999999999997 q0,-5 5,-5 h137.703125 q5,0 5,5 v32.8 H0 Z" class="node-bkg node-no-border" id="node-16"/><line y2="37.8" x2="147.703125" y1="37.8" x1="0" class="node-line-1"/></g><g transform="translate(73.8515625, 5)" text-anchor="middle" dominant-baseline="middle" alignment-baseline="middle" dy="1em"><g><rect style="stroke: none" class="background"/><text style="" y="-10.1"><tspan dy="1.1em" y="-0.1em" x="0" class="text-outer-tspan"><tspan font-weight="normal" class="text-inner-tspan" font-style="normal">pdf,</tspan><tspan font-weight="normal" class="text-inner-tspan" font-style="normal"> octet-stream</tspan></tspan></text></g></g></g><g transform="translate(15, 133.1596639998827)" class="mindmap-node section-1"><g><path d="M0 32.8 v-27.799999999999997 q0,-5 5,-5 h143.5 q5,0 5,5 v32.8 H0 Z" class="node-bkg node-no-border" id="node-17"/><line y2="37.8" x2="153.5" y1="37.8" x1="0" class="node-line-1"/></g><g transform="translate(76.75, 5)" text-anchor="middle" dominant-baseline="middle" alignment-baseline="middle" dy="1em"><g><rect style="stroke: none" class="background"/><text style="" y="-10.1"><tspan dy="1.1em" y="-0.1em" x="0" class="text-outer-tspan"><tspan font-weight="normal" class="text-inner-tspan" font-style="normal">mixed,</tspan><tspan font-weight="normal" class="text-inner-tspan" font-style="normal"> alternative</tspan></tspan></text></g></g></g><g transform="translate(386.57760157022267, 15)" class="mindmap-node section-1"><g><path d="M0 32.8 v-27.799999999999997 q0,-5 5,-5 h114.1640625 q5,0 5,5 v32.8 H0 Z" class="node-bkg node-no-border" id="node-19"/><line y2="37.8" x2="124.1640625" y1="37.8" x1="0" class="node-line-1"/></g><g transform="translate(62.08203125, 5)" text-anchor="middle" dominant-baseline="middle" alignment-baseline="middle" dy="1em"><g><rect style="stroke: none" class="background"/><text style="" y="-10.1"><tspan dy="1.1em" y="-0.1em" x="0" class="text-outer-tspan"><tspan font-weight="normal" class="text-inner-tspan" font-style="normal">charset=UTF-8</tspan></tspan></text></g></g></g><g transform="translate(561.9895492129632, 112.54666047827811)" class="mindmap-node section-1"><g><path d="M0 32.8 v-27.799999999999997 q0,-5 5,-5 h125.1875 q5,0 5,5 v32.8 H0 Z" class="node-bkg node-no-border" id="node-20"/><line y2="37.8" x2="135.1875" y1="37.8" x1="0" class="node-line-1"/></g><g transform="translate(67.59375, 5)" text-anchor="middle" dominant-baseline="middle" alignment-baseline="middle" dy="1em"><g><rect style="stroke: none" class="background"/><text style="" y="-10.1"><tspan dy="1.1em" y="-0.1em" x="0" class="text-outer-tspan"><tspan font-weight="normal" class="text-inner-tspan" font-style="normal">boundary=string</tspan></tspan></text></g></g></g><g transform="translate(533.9102823492656, 47.182717655887025)" class="mindmap-node section-1"><g><path d="M0 32.8 v-27.799999999999997 q0,-5 5,-5 h120.8984375 q5,0 5,5 v32.8 H0 Z" class="node-bkg node-no-border" id="node-21"/><line y2="37.8" x2="130.8984375" y1="37.8" x1="0" class="node-line-1"/></g><g transform="translate(65.44921875, 5)" text-anchor="middle" dominant-baseline="middle" alignment-baseline="middle" dy="1em"><g><rect style="stroke: none" class="background"/><text style="" y="-10.1"><tspan dy="1.1em" y="-0.1em" x="0" class="text-outer-tspan"><tspan font-weight="normal" class="text-inner-tspan" font-style="normal">name=filename</tspan></tspan></text></g></g></g><g transform="translate(351.4778768492339, 581.3533474241813)" class="mindmap-node section-3"><g><path d="M0 32.8 v-27.799999999999997 q0,-5 5,-5 h121.84375 q5,0 5,5 v32.8 H0 Z" class="node-bkg node-no-border" id="node-32"/><line y2="37.8" x2="131.84375" y1="37.8" x1="0" class="node-line-3"/></g><g transform="translate(65.921875, 5)" text-anchor="middle" dominant-baseline="middle" alignment-baseline="middle" dy="1em"><g><rect style="stroke: none" class="background"/><text style="" y="-10.1"><tspan dy="1.1em" y="-0.1em" x="0" class="text-outer-tspan"><tspan font-weight="normal" class="text-inner-tspan" font-style="normal">filename=string</tspan></tspan></text></g></g></g><g transform="translate(195.5843524749647, 554.3768729895548)" class="mindmap-node section-3"><g><path d="M0 32.8 v-27.799999999999997 q0,-5 5,-5 h84.625 q5,0 5,5 v32.8 H0 Z" class="node-bkg node-no-border" id="node-33"/><line y2="37.8" x2="94.625" y1="37.8" x1="0" class="node-line-3"/></g><g transform="translate(47.3125, 5)" text-anchor="middle" dominant-baseline="middle" alignment-baseline="middle" dy="1em"><g><rect style="stroke: none" class="background"/><text style="" y="-10.1"><tspan dy="1.1em" y="-0.1em" x="0" class="text-outer-tspan"><tspan font-weight="normal" class="text-inner-tspan" font-style="normal">size=bytes</tspan></tspan></text></g></g></g></g></svg>